<?xml version="1.0" standalone="no"?>
<!DOCTYPE svg PUBLIC "-//W3C//DTD SVG 20010904//EN"
 "http://www.w3.org/TR/2001/REC-SVG-20010904/DTD/svg10.dtd">
<svg version="1.0" xmlns="http://www.w3.org/2000/svg"
 width="700.000000pt" height="700.000000pt" viewBox="0 0 700.000000 700.000000"
 preserveAspectRatio="xMidYMid meet">
<metadata>
Created by potrace 1.11, written by Peter Selinger 2001-2013
</metadata>
<g transform="translate(0.000000,700.000000) scale(0.100000,-0.100000)"
fill="#000000" stroke="none">
<path d="M0 3500 l0 -3500 3500 0 3500 0 0 3500 0 3500 -3500 0 -3500 0 0
-3500z m5690 2541 l0 -209 -1522 -2229 c-836 -1225 -1523 -2238 -1526 -2250
l-4 -23 1546 0 1546 0 0 -290 0 -290 -2230 0 -2230 0 0 2750 0 2750 2210 0
2210 0 0 -209z"/>
<path d="M1960 3593 c0 -1768 2 -2075 14 -2063 42 45 2806 4102 2806 4119 l0
21 -1410 0 -1410 0 0 -2077z"/>
</g>
</svg>
