<?xml version="1.0" standalone="no"?>
<!DOCTYPE svg PUBLIC "-//W3C//DTD SVG 20010904//EN"
 "http://www.w3.org/TR/2001/REC-SVG-20010904/DTD/svg10.dtd">
<svg version="1.0" xmlns="http://www.w3.org/2000/svg"
 width="700.000000pt" height="700.000000pt" viewBox="0 0 700.000000 700.000000"
 preserveAspectRatio="xMidYMid meet">
<metadata>
Created by potrace 1.11, written by Peter Selinger 2001-2013
</metadata>
<g transform="translate(0.000000,700.000000) scale(0.100000,-0.100000)"
fill="#000000" stroke="none">
<path d="M765 3500 l0 -3370 2731 0 c2177 0 2733 3 2736 12 2 7 4 171 3 363
l0 350 -1880 3 c-1119 1 -1883 6 -1888 11 -9 9 19 52 432 656 112 165 242 356
289 424 46 68 103 151 126 185 23 34 87 126 141 206 111 164 217 318 318 465
38 55 116 170 173 255 58 85 147 216 197 290 51 74 200 293 332 485 131 193
274 402 318 465 43 63 121 178 173 255 52 77 123 181 157 230 35 50 110 160
169 245 58 85 153 225 211 310 58 85 144 211 191 280 46 69 137 202 201 295
64 94 155 228 203 298 l87 129 0 264 0 264 -2710 0 -2710 0 0 -3370z m4289
2632 c7 -12 -4 -30 -147 -239 -71 -103 -188 -275 -260 -380 -73 -106 -174
-255 -226 -330 -130 -191 -242 -354 -563 -823 -152 -223 -364 -532 -470 -688
-106 -155 -228 -333 -270 -395 -43 -61 -82 -119 -88 -127 -5 -8 -58 -86 -117
-172 -60 -86 -209 -306 -333 -488 -124 -182 -231 -338 -238 -348 -13 -17 -149
-217 -282 -412 -216 -317 -420 -613 -421 -609 -1 2 -2 1132 -3 2512 l-1 2507
1707 0 c939 0 1709 -4 1712 -8z"/>
</g>
</svg>
